<svg version="1.1" xmlns="http://www.w3.org/2000/svg" style="display: block;" viewBox="0 0 2048 2048" width="1024" height="1024" preserveAspectRatio="none">
<path transform="translate(0,0)" fill="#3057e1" d="M 176.295 0 L 1870.89 0 L 1871.87 0.198586 C 1884.57 2.67281 1897.91 2.76081 1910.6 5.44481 C 1944.16 12.5421 1977.16 27.3662 2000.85 52.4684 C 2029.17 82.4677 2042.04 121.66 2046.18 161.911 C 2046.57 165.666 2047.17 170.844 2048 174.471 L 2048 1873.74 C 2045.94 1886.01 2044.91 1898.76 2042.64 1910.81 C 2027.65 1990.48 1968.99 2037.99 1889.56 2045.86 C 1886.35 2046.18 1879.58 2047.15 1876.54 2048 L 170.424 2048 C 161.4 2045.86 149.386 2044.57 140.266 2043.01 C 68.7558 2030.74 18.1932 1981.54 5.52696 1909.86 C 3.40907 1897.87 2.26869 1884.42 0 1872.43 L 0 176.342 C 1.53474 169.558 2.57593 154.456 3.89148 146.504 C 8.5091 118.589 17.5817 92.2831 33.7825 68.895 C 58.2053 33.6373 95.4736 14.3667 136.686 5.68586 C 149.67 2.95093 162.565 2.51414 175.291 0.189882 L 176.295 0 z"/>
<path transform="translate(0,0)" fill="#ced8f7" d="M 1105.98 225.983 L 1536.89 225.884 C 1548.13 225.877 1568.98 225.245 1579.25 226.584 C 1612.46 230.915 1639.59 238.788 1668.77 255.214 C 1676 259.395 1687.14 263.555 1693.63 268.497 C 1712.45 282.83 1743.71 308.33 1757.36 327.28 C 1776.87 354.362 1798.16 398.199 1804.09 430.995 C 1812.78 479.075 1810.05 533.352 1810.05 582.586 L 1810.05 782.31 L 1810.14 1535.11 C 1809.71 1592.96 1789.46 1648.91 1752.77 1693.63 C 1694.18 1764.75 1616.49 1794.67 1526.45 1792.05 C 1519.29 1791.84 1511.74 1792.05 1504.54 1792.05 L 1415.5 1791.98 L 1105.98 1792.01 L 1105.88 1685.33 C 1105.85 1670.81 1105.15 1650.92 1106.81 1636.42 C 1107.25 1632.64 1112.57 1629.03 1115.71 1627.07 C 1147.24 1611.42 1174.34 1595.68 1207.94 1585.15 L 1208.04 1630.04 C 1322.39 1629.36 1437.09 1630.4 1551.47 1630.06 C 1576.78 1630.47 1602.46 1619.48 1620.19 1601.28 C 1655.53 1565 1650.07 1512.9 1650 1466.45 L 1649.95 1373.35 C 1649.97 1269.6 1650.06 1165.79 1649.99 1062.02 C 1649.98 1041.3 1646.82 1024.9 1633.29 1007.97 C 1622.59 996.223 1606.57 990.593 1592.84 983.315 C 1546.95 958.989 1499.37 939.156 1452.34 917.321 C 1444.57 913.714 1438.86 910.129 1432.82 904.025 C 1441.98 894.329 1463.85 884.967 1476.6 878.616 L 1549.98 842.046 C 1577.91 828.116 1611.01 813.59 1634.76 793.533 C 1650.36 780.351 1650.06 743.958 1650.05 725.698 L 1650 676.375 L 1650.07 512.75 C 1650.13 472.703 1649.23 448.887 1619.89 418.425 C 1583.93 381.092 1544.67 383.997 1495.65 383.98 L 1431.92 383.97 L 1208.01 384.022 L 1208.04 460.012 L 1105.98 460.011 L 1105.98 225.983 z"/>
<path transform="translate(0,0)" fill="#ced8f7" d="M 479.032 226.354 C 488.034 225.286 517.621 225.937 527.722 225.945 L 623.966 226.011 L 948.021 225.988 L 948.046 460.022 L 845.973 460.01 L 846.015 384.002 L 615.121 384.008 L 547.58 383.919 C 507.439 383.878 478.01 382.612 444.648 408.502 C 406.396 438.188 405.896 481.388 406.021 523.82 L 406.086 590.846 L 406.073 812.77 L 406.027 981.681 C 406.017 1006.2 405.16 1035.09 407.286 1059.41 C 408.923 1067.76 415.456 1084.28 421.088 1090.07 C 430.774 1100.04 443.748 1104.53 455.776 1110.97 C 491.242 1129.98 530.809 1145.27 563.843 1168.26 C 555.289 1173.97 538.619 1181.72 528.748 1186.63 L 466.125 1217.81 C 427.675 1236.99 406.498 1244.9 406.052 1293.51 L 405.995 1465.96 C 406 1488.4 405.005 1523.61 407.305 1545.29 C 411.975 1564.37 423.95 1589.39 437.729 1602.78 C 467.559 1631.76 498.638 1630.18 536.414 1630.07 L 611.5 1629.99 L 847.989 1629.99 L 848.015 1585.04 C 867.193 1590.95 935.779 1621.13 948.085 1632.82 L 948.038 1792.02 L 639.891 1791.97 L 551.382 1792.04 C 518.228 1792.07 490.547 1793 457.947 1787.12 C 350.98 1767.83 261.983 1674.44 247.871 1566.65 C 244.937 1544.24 245.94 1520.58 245.941 1497.75 L 245.983 1387.94 L 245.998 999.982 L 245.979 624.146 L 245.938 511.909 C 245.936 501.275 245.215 462.279 246.799 453.122 C 254.955 408.195 270.917 368.832 297.787 331.788 C 331.106 285.855 376.551 254.863 429.998 236.499 C 445.102 231.31 463.149 228.831 479.032 226.354 z"/>
<path transform="translate(0,0)" fill="#ced8f7" d="M 672.888 534.372 C 676.758 533.926 683.506 533.937 687.476 533.917 L 1174.27 533.981 L 1315.62 533.926 C 1366.43 533.866 1429.39 527.763 1469.07 565.687 C 1492.98 588.538 1505.47 624.148 1504.13 656.424 C 1503.72 666.151 1505.33 675.98 1505.44 685.557 C 1505.85 718.378 1503.96 750.624 1504.05 783.643 C 1497.53 788.895 1481.07 796.51 1473.07 800.521 L 1423.25 825.451 C 1402.78 835.677 1374.63 851.786 1354.36 859.242 C 1351.36 860.345 1347.81 860.267 1344.67 860.006 C 1333.69 859.095 1305.04 847.463 1299.81 837.4 C 1293.07 824.43 1302.55 713.763 1295.62 705.386 C 1291.38 704.283 1285.87 704.012 1281.45 704.002 C 1238.18 703.911 1194.85 703.957 1151.58 703.978 L 903.385 704.044 L 817.067 704.001 C 805.748 703.964 766.876 702.89 758.006 705.336 C 754.767 710.798 756.006 790.164 756.005 804.587 L 756.004 978.25 C 755.926 982.029 762.999 984.792 766.313 986.343 C 815.142 1009.19 863.494 1033.69 912.742 1055.45 C 936.523 1065.96 959.952 1080.47 983.601 1090.76 C 1013.5 1103.78 1041.96 1117.53 1070.97 1132.4 C 1104.22 1147.17 1137.17 1162.68 1169.44 1179.65 C 1184.05 1187.34 1208.19 1196.78 1219.28 1208.12 C 1211.06 1216.4 1189.58 1226.44 1178.45 1231.86 C 1156.63 1242.47 1134.01 1254.72 1112.08 1264.77 C 1093.15 1273.44 1074.76 1280.75 1056.05 1290.9 C 1046.1 1296.3 1036.75 1299.35 1026.78 1306.03 C 1020.53 1298.26 982.997 1284.16 971.935 1278.91 L 856.618 1223.23 C 788.22 1190.97 720.005 1156.55 652.122 1123.17 C 636.12 1115.3 563.905 1084.43 554.536 1074.1 C 552.721 1044.25 553.93 1002.44 553.919 971.911 L 553.896 782.757 L 553.922 674.8 C 553.929 658.731 553.435 638.524 554.673 622.648 C 555.037 617.987 567.11 593.088 570.486 588.208 C 575.247 581.325 583.255 574.145 588.732 568.039 C 614.045 539.821 637.264 539.367 672.888 534.372 z"/>
<path transform="translate(0,0)" fill="#ced8f7" d="M 833.968 789.999 L 956.722 789.905 C 970.347 789.896 1005.6 788.975 1017.94 791.222 C 1039.18 796.173 1058.91 809.833 1078.46 818.048 C 1119.06 835.105 1157.45 856.105 1196.96 875.434 L 1329.08 939.505 C 1339.6 944.637 1350.9 948.558 1360.98 953.55 C 1392.79 969.305 1424.7 985.229 1456.42 1001.13 C 1465.97 1005.92 1493.78 1018.87 1500.09 1024.76 L 1500.18 1355.03 L 1175.09 1515.46 L 1079.3 1563.37 C 1073.46 1566.29 1029.49 1589.13 1026.29 1587.67 C 1004.73 1577.84 982.85 1566.19 961.503 1555.85 L 781.84 1468.01 C 772.72 1463.58 763.691 1460.37 754.748 1456.21 C 743.164 1450.82 731.263 1444.68 719.82 1438.92 C 695.132 1426.58 566.512 1365.22 557.169 1355.4 C 555.912 1354.07 555.044 1352.6 554.706 1350.79 C 552.667 1339.86 553.858 1327.39 553.868 1316.22 L 554.09 1249.72 C 559.493 1246.4 574.727 1239.53 581.269 1236.28 L 644.181 1205.08 L 905.737 1331.84 C 940.824 1348.62 993.05 1378.39 1027.97 1390.67 C 1037.41 1386.5 1047.97 1382.85 1057.21 1378.29 C 1094.92 1359.71 1132.47 1340.7 1170.08 1321.93 C 1180.3 1316.56 1191.7 1313.14 1201.95 1307.99 C 1233.94 1291.92 1266.31 1276.32 1298.05 1259.77 L 1298.01 1152.35 C 1289.25 1146.85 1279.41 1144.52 1270.24 1140.09 C 1241.63 1126.27 1213.5 1111.36 1184.86 1097.61 C 1175.67 1093.2 1165.89 1089.92 1156.64 1085.46 L 951.937 987.058 C 924.467 973.955 896.106 962.728 869.258 947.725 C 857.749 941.293 845.606 936.597 834.297 929.359 C 832.539 886.817 833.947 833.349 833.968 789.999 z"/>
</svg>